<?xml version="1.0" encoding="utf-8"?>
<!-- Generator: Adobe Illustrator 17.0.0, SVG Export Plug-In . SVG Version: 6.00 Build 0)  -->
<!DOCTYPE svg PUBLIC "-//W3C//DTD SVG 1.1//EN" "http://www.w3.org/Graphics/SVG/1.1/DTD/svg11.dtd">
<svg version="1.1" id="Layer_1" xmlns="http://www.w3.org/2000/svg" xmlns:xlink="http://www.w3.org/1999/xlink" x="0px" y="0px"
	 width="300px" height="300px" viewBox="0 0 300 300" enable-background="new 0 0 300 300" xml:space="preserve">
<path fill="#FFFECD" d="M126.557,153.649c0.259,5.644,1.411,10.912,3.333,15.234c4.067,9.152,11.339,14.616,19.452,14.616
	c8.221,0,15.562-5.465,19.636-14.617c4.511-10.133,3.905-29.215-6.103-44.624c-4.618-7.111-10.018-11.027-15.203-11.027
	c-0.173,0-0.35,0.004-0.524,0.013C134.539,113.887,125.725,135.492,126.557,153.649z"/>
<path fill="#F2D21D" d="M149.341,188c-9.943,0-18.752-6.463-23.564-17.288c-2.177-4.899-3.427-10.57-3.715-16.856
	c-0.948-20.687,9.027-44.299,24.857-45.105c7.029-0.354,14.051,4.313,19.73,13.058c8.114,12.494,13.128,33.879,6.439,48.905
	C168.271,181.537,159.393,188,149.341,188z M147.672,113.231c-0.173,0-0.35,0.004-0.524,0.013
	c-12.609,0.642-21.423,22.247-20.591,40.405c0.259,5.644,1.411,10.912,3.333,15.234c4.067,9.152,11.339,14.616,19.452,14.616
	c8.221,0,15.562-5.465,19.636-14.617c4.511-10.133,3.905-29.215-6.103-44.624C158.257,117.147,152.857,113.231,147.672,113.231z"/>
<g>
	<path fill="#F2D21D" d="M138.908,154.381c-0.011,0-0.022,0-0.033,0c-0.8-0.012-1.534-0.448-1.927-1.146l-4.475-7.94l-5.167,7.751
		c-0.689,1.034-2.086,1.313-3.12,0.624s-1.313-2.086-0.624-3.12l7.2-10.8c0.434-0.651,1.179-1.032,1.956-1
		c0.782,0.029,1.492,0.462,1.876,1.144l4.379,7.771l4.717-7.827c0.398-0.66,1.105-1.071,1.876-1.088
		c0.782-0.02,1.496,0.36,1.923,1.001l5.189,7.785l4.681-8.116c0.396-0.685,1.12-1.112,1.911-1.125
		c0.76-0.054,1.529,0.388,1.947,1.06l4.564,7.323l3.723-7.594c0.547-1.115,1.895-1.578,3.011-1.03s1.577,1.895,1.03,3.011
		l-5.508,11.235c-0.36,0.734-1.09,1.216-1.906,1.257c-0.808,0.04-1.591-0.363-2.023-1.057l-4.725-7.581l-4.617,8.005
		c-0.389,0.674-1.099,1.1-1.876,1.125c-0.771,0.025-1.514-0.354-1.945-1.001l-5.232-7.848l-4.877,8.094
		C140.427,153.969,139.696,154.381,138.908,154.381z"/>
</g>
</svg>
