<?xml version="1.0" encoding="utf-8"?>
<!-- Generator: Adobe Illustrator 17.0.0, SVG Export Plug-In . SVG Version: 6.00 Build 0)  -->
<!DOCTYPE svg PUBLIC "-//W3C//DTD SVG 1.1//EN" "http://www.w3.org/Graphics/SVG/1.1/DTD/svg11.dtd">
<svg version="1.1" id="Layer_1" xmlns="http://www.w3.org/2000/svg" xmlns:xlink="http://www.w3.org/1999/xlink" x="0px" y="0px"
	 width="300px" height="300px" viewBox="0 0 300 300" enable-background="new 0 0 300 300" xml:space="preserve">
<g>
	<path fill="#E70034" d="M141.534,151.638c-5.95-5.6,0.7-10.5,2.45-4.9c0.7-6.65,5.25-3.15,4.9,0c1.75-7.35,8.4-1.05,2.45,4.9"/>
	<path fill="none" stroke="#1C2812" stroke-width="1.575" stroke-linecap="round" stroke-linejoin="round" d="M141.534,151.638
		c-5.95-5.6,0.7-10.5,2.45-4.9c0.7-6.65,5.25-3.15,4.9,0c1.75-7.35,8.4-1.05,2.45,4.9"/>
	<path fill="#FFFF11" d="M146.434,150.836c-10.5-0.27-18.2,12.501-13.65,22.05c4.55,9.549,16.45,10.5,23.45,6.65
		S166.034,151.886,146.434,150.836"/>
	<path fill="none" stroke="#1C2812" stroke-width="2.1" d="M146.434,150.836c-10.5-0.27-18.2,12.501-13.65,22.05
		c4.55,9.549,16.45,10.5,23.45,6.65S166.034,151.886,146.434,150.836z"/>
	<path fill="#FFFECD" d="M171.252,154.939l-0.744-0.868l-5.509,11.235l-6.708-10.764l-6.492,11.255l-7.2-10.8l-6.708,11.133
		l-6.274-11.133l-8.255,11.228l-0.112,0.058c0.01,0.49,0.021,0.98,0.043,1.468c0.262,5.708,1.388,11.24,3.524,16.046
		c9.6,21.6,33.879,20.937,43.2,0C173.682,175.562,173.666,164.913,171.252,154.939"/>
	<path fill="none" stroke="#F2D21D" stroke-width="4.5" stroke-linecap="round" stroke-linejoin="round" d="M171.252,154.939
		l-0.744-0.868l-5.509,11.235l-6.708-10.764l-6.492,11.255l-7.2-10.8l-6.708,11.133l-6.274-11.133l-8.255,11.228l-0.112,0.058
		c0.01,0.49,0.021,0.98,0.043,1.468c0.262,5.708,1.388,11.24,3.524,16.046c9.6,21.6,33.879,20.937,43.2,0
		C173.682,175.562,173.666,164.913,171.252,154.939z"/>
	<path fill="#FFFECD" d="M127.702,121.612l0.031,0.15l13.417-3.766l-1.91,12.635l12.141-4.642l-0.976,12.943l12.045-4.872
		l-1.34,12.612l11.257-5.462l0.709-0.349c6.248-14.775,6.71-31.446-2.108-37.64C159.81,95.385,139.444,106.034,127.702,121.612"/>
	<path fill="none" stroke="#F2D21D" stroke-width="4.5" stroke-linecap="round" stroke-linejoin="round" d="M127.702,121.612
		l0.031,0.15l13.417-3.766l-1.91,12.635l12.141-4.642l-0.976,12.943l12.045-4.872l-1.34,12.612l11.257-5.462l0.709-0.349
		c6.248-14.775,6.71-31.446-2.108-37.64C159.81,95.385,139.444,106.034,127.702,121.612z"/>
</g>
</svg>
