<?xml version="1.0" encoding="utf-8"?>
<!-- Generator: Adobe Illustrator 17.0.0, SVG Export Plug-In . SVG Version: 6.00 Build 0)  -->
<!DOCTYPE svg PUBLIC "-//W3C//DTD SVG 1.1//EN" "http://www.w3.org/Graphics/SVG/1.1/DTD/svg11.dtd">
<svg version="1.1" id="Layer_1" xmlns="http://www.w3.org/2000/svg" xmlns:xlink="http://www.w3.org/1999/xlink" x="0px" y="0px"
	 width="300px" height="300px" viewBox="0 0 300 300" enable-background="new 0 0 300 300" xml:space="preserve">
<g>
	<path fill="#FFFF11" d="M184.667,181.459c15,20.752,25.583,7.291,14.583-0.709c13,3,12.435-8,4-11c18-8,3.708-18.582-13.292-7.582"
		/>
	<path fill="#FAFD88" d="M105.833,166.333c-15-8-25.583-20.583-25.583-20.583s10.292-13.291,37.292-22.291"/>
</g>
<path fill="none" stroke="#1C2812" stroke-width="4.5" stroke-linecap="round" stroke-linejoin="round" d="M120.25,139.75"/>
<g>
	<path fill="#E70034" d="M133.25,112.75c-17-16,2-30,7-14c2-19,15-9,14,0c5-21,24-3,7,14"/>
	<path fill="#1C2812" d="M133.25,115c-0.553,0-1.107-0.203-1.542-0.611c-6.674-6.282-9.19-13.48-6.731-19.257
		c1.546-3.632,4.852-5.862,8.408-5.687c1.254,0.062,3.697,0.521,5.897,2.898c1.069-3.112,2.689-5.161,4.846-6.116
		c2.263-1,4.896-0.595,7.226,1.113c1.414,1.036,2.601,2.436,3.482,4.02c2.263-3.429,4.902-4.17,6.232-4.312
		c3.254-0.351,6.349,1.657,8.056,5.229c2.354,4.926,2.12,13.661-6.283,22.064c-0.879,0.879-2.303,0.879-3.182,0
		c-0.879-0.878-0.879-2.303,0-3.182c6.742-6.743,7.125-13.341,5.404-16.943c-0.847-1.774-2.226-2.831-3.52-2.694
		c-1.617,0.172-3.808,2.298-5.105,7.749c-0.275,1.157-1.397,1.897-2.574,1.696c-1.171-0.204-1.981-1.284-1.851-2.465
		c0.341-3.063-1.457-6.167-3.32-7.532c-0.716-0.524-1.772-1.058-2.745-0.628c-0.628,0.278-2.733,1.723-3.461,8.644
		c-0.112,1.062-0.954,1.898-2.016,2.003c-1.055,0.112-2.051-0.549-2.37-1.568c-1.057-3.38-2.858-5.378-4.942-5.482
		c-1.676-0.084-3.245,1.077-4.043,2.955c-0.633,1.487-2.094,6.906,5.675,14.218c0.905,0.852,0.948,2.276,0.097,3.181
		C134.446,114.763,133.848,115,133.25,115z"/>
	<path fill="#FFFF11" d="M147.25,110.459c-30-0.771-52,35.718-39,63c13,27.282,47,30,67,19S203.25,113.459,147.25,110.459"/>
	<path fill="#1C2812" d="M150.458,201.503c-0.001,0-0.001,0-0.002,0c-20.142-0.001-36.932-10.002-44.914-26.754
		c-6.583-13.814-5.093-31.235,3.888-45.463c8.832-13.992,23.021-22.205,37.897-21.827c32.047,1.716,41.61,22.932,44.465,35.427
		c4.664,20.409-2.531,45.29-15.097,52.201C169.175,199.225,159.856,201.503,150.458,201.503z M146.315,113.446
		c-12.393,0-24.285,7.119-31.812,19.042c-7.892,12.503-9.25,27.708-3.546,39.68c6.962,14.609,21.728,23.333,39.498,23.334
		c0,0,0.002,0,0.002,0c8.405,0,16.695-2.015,23.346-5.673c9.268-5.098,16.589-26.13,12.139-45.607
		c-2.479-10.847-10.822-29.267-38.854-30.769C146.887,113.45,146.6,113.446,146.315,113.446z"/>
	<path fill="#1C2812" d="M131.982,133.493c-4.38,0-10.951,6.571-4.38,13.141c4.38,4.381,10.125,1.115,10.951-2.19
		C139.648,140.064,136.362,133.493,131.982,133.493"/>
</g>
<g>
	<path fill="#1C2812" d="M207.944,169.839c4.58-2.824,5.773-5.627,5.881-7.641c0.119-2.222-1.071-4.225-3.267-5.495
		c-4.282-2.479-12.688-2.336-21.823,3.576c-1.043,0.675-1.342,2.067-0.666,3.111c0.676,1.043,2.068,1.343,3.111,0.666
		c8.002-5.178,14.623-4.907,17.123-3.459c0.709,0.41,1.055,0.868,1.028,1.361c-0.066,1.24-1.938,3.487-6.996,5.735
		c-0.841,0.373-1.369,1.222-1.334,2.142s0.627,1.726,1.494,2.034c3.575,1.271,4.94,4.066,4.519,5.513
		c-0.388,1.33-2.781,2.21-7.259,1.175c-1.039-0.241-2.109,0.285-2.553,1.259c-0.444,0.974-0.142,2.124,0.724,2.753
		c3.104,2.258,3.855,4.698,3.556,6.102c-0.174,0.812-0.688,1.315-1.527,1.492c-2.481,0.522-7.51-1.783-13.465-10.022
		c-0.727-1.006-2.134-1.232-3.142-0.505c-1.007,0.728-1.233,2.134-0.505,3.142c7.362,10.186,13.266,11.945,16.463,11.945
		c0.636,0,1.164-0.069,1.576-0.156c2.584-0.545,4.454-2.397,5.001-4.955c0.43-2.013,0-4.164-1.155-6.184
		c3.869-0.42,5.938-2.498,6.605-4.783C212.232,175.567,210.812,172.196,207.944,169.839z"/>
	<path fill="#1C2812" d="M130,204.597v-10.115c0-1.242-0.757-2.25-2-2.25s-2,1.008-2,2.25v10.124l-12.537,11.155
		c-0.928,0.826-1.011,2.248-0.186,3.177c0.445,0.499,1.062,0.754,1.682,0.754c0.532,0,1.066-0.188,1.495-0.569l9.545-8.493v10.121
		c0,1.242,0.757,2.25,2,2.25s2-1.008,2-2.25v-10.161l9.515,8.143c0.934,0.819,2.48,0.728,3.3-0.205
		c0.82-0.934,0.542-2.355-0.392-3.176L130,204.597z"/>
	<path fill="#1C2812" d="M171,204.597v-10.115c0-1.242-0.758-2.25-2-2.25s-2,1.008-2,2.25v10.124l-12.537,11.155
		c-0.928,0.826-1.011,2.248-0.185,3.177c0.444,0.499,1.062,0.754,1.682,0.754c0.532,0,1.066-0.188,1.495-0.569l9.545-8.493v10.121
		c0,1.242,0.758,2.25,2,2.25s2-1.008,2-2.25v-10.161l9.515,8.143c0.935,0.819,2.479,0.728,3.301-0.205
		c0.82-0.934,0.541-2.355-0.393-3.176L171,204.597z"/>
	<path fill="#1C2812" d="M106.891,164.348c-9.668-5.156-17.515-12.345-21.676-16.566l19.444,1.503
		c0.059,0.005,0.118,0.007,0.176,0.007c1.164,0,2.149-0.896,2.241-2.077c0.096-1.239-0.831-2.321-2.07-2.417l-19.213-1.485
		c4.987-4.464,15.225-11.975,32.46-17.72c1.179-0.393,1.816-1.667,1.423-2.846c-0.393-1.179-1.667-1.816-2.846-1.423
		c-27.334,9.112-37.922,22.483-38.359,23.048c-0.649,0.838-0.625,2.015,0.057,2.826c0.444,0.527,11.038,13.009,26.247,21.121
		c0.337,0.18,0.699,0.265,1.057,0.265c0.804,0,1.583-0.432,1.987-1.191C108.402,166.295,107.988,164.933,106.891,164.348z"/>
</g>
</svg>
