<?xml version="1.0" encoding="utf-8"?>
<!-- Generator: Adobe Illustrator 17.0.0, SVG Export Plug-In . SVG Version: 6.00 Build 0)  -->
<!DOCTYPE svg PUBLIC "-//W3C//DTD SVG 1.1//EN" "http://www.w3.org/Graphics/SVG/1.1/DTD/svg11.dtd">
<svg version="1.1" id="Layer_1" xmlns="http://www.w3.org/2000/svg" xmlns:xlink="http://www.w3.org/1999/xlink" x="0px" y="0px"
	 width="300px" height="300px" viewBox="0 0 300 300" enable-background="new 0 0 300 300" xml:space="preserve">
<g>
	<path fill="#FAFD88" d="M116.25,125.098l-17-16c0,0,18-2,32.605,3"/>
	<path fill="#FAFD88" d="M109.625,140.848l-24.375,4.791c0,0,10.221,9.459,23,12.459"/>
	<path fill="#FFFF11" d="M180.705,186.38c9.534,23.765,23.059,13.264,14.321,2.84c11.888,6.056,14.001-4.754,6.542-9.705
		c19.401-3.408,8.094-17.134-11.062-10.573"/>
	<g>
		<path fill="#1C2812" d="M132.584,109.969c-14.91-5.104-32.826-3.192-33.583-3.107c-0.872,0.097-1.608,0.692-1.886,1.524
			s-0.046,1.75,0.592,2.351l17,16c0.435,0.409,0.989,0.611,1.542,0.611c0.599,0,1.196-0.237,1.639-0.708
			c0.852-0.905,0.808-2.329-0.097-3.181l-13.221-12.443c6.25-0.212,17.194,0.006,26.555,3.21c1.178,0.401,2.456-0.225,2.858-1.4
			C134.386,111.651,133.759,110.372,132.584,109.969z"/>
		<path fill="#1C2812" d="M109.19,138.641l-24.375,4.791c-0.831,0.163-1.5,0.779-1.73,1.594s0.015,1.69,0.636,2.265
			c0.435,0.403,10.809,9.898,24.014,12.998c0.173,0.041,0.346,0.061,0.516,0.061c1.021-0.001,1.945-0.7,2.188-1.736
			c0.284-1.21-0.466-2.421-1.676-2.705c-7.634-1.792-14.398-6.078-18.345-8.991l19.64-3.86c1.219-0.239,2.013-1.422,1.773-2.642
			C111.593,139.194,110.41,138.401,109.19,138.641z"/>
		<path fill="#1C2812" d="M211.816,168.623c-3.554-3.44-11.744-5.336-22.04-1.81c-1.175,0.403-1.802,1.683-1.399,2.858
			c0.402,1.174,1.677,1.799,2.858,1.399c9.016-3.09,15.377-1.223,17.45,0.784c0.589,0.57,0.813,1.099,0.669,1.57
			c-0.364,1.188-2.725,2.915-8.176,3.873c-0.906,0.159-1.624,0.854-1.812,1.756c-0.188,0.9,0.19,1.825,0.958,2.335
			c3.161,2.098,3.81,5.141,3.05,6.441c-0.697,1.195-3.232,1.47-7.326-0.616c-0.954-0.488-2.116-0.233-2.782,0.604
			s-0.65,2.027,0.036,2.847c2.467,2.942,2.605,5.491,1.976,6.78c-0.366,0.747-0.982,1.094-1.844,1.079
			c-2.543-0.094-6.856-3.55-10.641-12.982c-0.463-1.152-1.771-1.714-2.926-1.25c-1.153,0.462-1.713,1.772-1.25,2.926
			c5.61,13.983,12.115,15.71,14.651,15.803c0.089,0.004,0.178,0.005,0.266,0.005c2.525,0,4.675-1.332,5.785-3.603
			c0.904-1.849,1.008-4.04,0.375-6.278c3.855,0.522,6.365-0.987,7.565-3.044c1.617-2.768,1.055-6.383-1.157-9.364
			c5.126-1.632,6.963-4.062,7.554-5.99C214.31,172.619,213.639,170.388,211.816,168.623z"/>
	</g>
</g>
<g>
	<path fill="#1C2812" d="M120.578,183.252l-9.177,4.28l-15.408-6.648c-1.141-0.494-2.465,0.032-2.957,1.174
		c-0.492,1.142,0.034,2.465,1.175,2.957l11.732,5.062l-9.173,4.278c-1.126,0.525-1.613,1.864-1.088,2.99
		c0.382,0.818,1.193,1.3,2.041,1.3c0.318,0,0.642-0.068,0.95-0.212l9.209-4.294l-3.464,11.838c-0.349,1.192,0.335,2.442,1.528,2.791
		c0.211,0.062,0.424,0.092,0.633,0.092c0.974,0,1.871-0.638,2.159-1.619l4.575-15.634l9.169-4.276
		c1.126-0.525,1.613-1.864,1.088-2.99C123.043,183.214,121.705,182.727,120.578,183.252z"/>
	<path fill="#1C2812" d="M186.946,205.652l-16.024-2.915l-5.211-8.673c-0.641-1.065-2.021-1.41-3.088-0.77
		c-1.064,0.64-1.409,2.022-0.77,3.088l5.215,8.679l-5.002,16.018c-0.371,1.187,0.291,2.448,1.477,2.818
		c0.224,0.07,0.449,0.104,0.672,0.104c0.958,0,1.846-0.617,2.146-1.58l3.809-12.197l5.213,8.675
		c0.422,0.702,1.167,1.091,1.931,1.091c0.395,0,0.794-0.104,1.157-0.321c1.064-0.64,1.409-2.022,0.77-3.088l-5.233-8.709
		l12.134,2.208c1.218,0.219,2.394-0.588,2.616-1.812C188.98,207.046,188.169,205.875,186.946,205.652z"/>
</g>
<path fill="none" stroke="#1C2812" stroke-width="4.5" stroke-linecap="round" stroke-linejoin="round" d="M128.292,130.326"/>
<g>
	<path fill="#E70034" d="M147.437,107.273c-12.624-19.637,9.198-28.625,10.179-11.891c6.537-17.951,16.732-5.104,13.584,3.387
		c9.932-19.166,24.013,2.895,3.405,15.278"/>
	<path fill="#1C2812" d="M174.607,116.298c-0.764,0-1.509-0.389-1.931-1.092c-0.64-1.065-0.295-2.447,0.77-3.087
		c8.174-4.911,10.142-11.221,9.343-15.132c-0.394-1.926-1.478-3.286-2.763-3.465c-1.605-0.218-4.25,1.309-6.828,6.284
		c-0.547,1.057-1.822,1.505-2.908,1.022c-1.088-0.481-1.613-1.725-1.199-2.84c1.071-2.89,0.079-6.336-1.398-8.111
		c-0.567-0.681-1.465-1.456-2.512-1.273c-0.677,0.118-3.069,1.01-5.45,7.55c-0.365,1.002-1.37,1.616-2.44,1.456
		c-1.056-0.154-1.857-1.029-1.92-2.094c-0.207-3.536-1.472-5.91-3.469-6.515c-1.586-0.481-3.408,0.26-4.638,1.889
		c-0.974,1.29-3.703,6.194,2.066,15.168c0.672,1.045,0.37,2.438-0.676,3.109c-1.044,0.673-2.437,0.371-3.109-0.676
		c-4.956-7.709-5.656-15.303-1.872-20.314c2.378-3.15,6.121-4.517,9.533-3.484c1.202,0.364,3.461,1.4,5.021,4.239
		c1.79-2.761,3.858-4.357,6.182-4.762c2.434-0.425,4.894,0.605,6.743,2.828c1.12,1.347,1.934,2.992,2.405,4.742
		c3.027-2.781,5.77-2.857,7.09-2.675c3.25,0.453,5.76,3.144,6.552,7.022c1.092,5.35-1.247,13.769-11.434,19.89
		C175.401,116.194,175.002,116.298,174.607,116.298z"/>
	<path fill="#FFFF11" d="M161.576,108.437c-28.922-8.005-59.096,22.077-53.083,51.694c6.014,29.616,38.347,40.479,60.414,34.644
		C190.974,188.94,215.187,124.896,161.576,108.437"/>
	<path fill="#1C2812" d="M156.73,199.293C156.729,199.293,156.729,199.293,156.73,199.293c-20.877,0-45.797-12.068-51.178-38.565
		c-2.658-13.094,1.128-27.102,10.39-38.432c9.299-11.377,22.749-18.169,35.977-18.169c3.536,0,7.055,0.478,10.457,1.419
		c30.681,9.418,34.826,32.317,34.574,45.131c-0.412,20.931-13.413,43.332-27.276,46.998
		C165.613,198.749,161.258,199.293,156.73,199.293z M151.919,110.126c-11.447,0-23.159,5.969-31.331,15.966
		c-8.117,9.93-11.454,22.119-9.155,33.441c4.71,23.194,26.782,33.759,45.297,33.759h0.001c4.01,0,7.849-0.478,11.41-1.419
		c10.226-2.704,22.418-21.34,22.811-41.315c0.219-11.124-3.42-31.016-30.256-39.254
		C157.895,110.531,154.914,110.126,151.919,110.126z"/>
	<path fill="#1C2812" d="M141.189,127.093c-4.25-1.06-12.216,3.726-7.43,11.691c3.191,5.311,9.555,3.531,11.156,0.525
		C147.038,135.323,145.439,128.153,141.189,127.093"/>
</g>
</svg>
